<?xml version="1.0" standalone="no"?>
<svg
  width="600"
  height="600"
  viewBox="0 0 600 600"
  xmlns="http://www.w3.org/2000/svg"
>
  <g transform="translate(300,300)">
    <path d="M158.1,-185.5C196.1,-156.4,212.3,-98.4,221.7,-39.9C231.1,18.6,233.8,77.6,211.3,127C188.7,176.5,141.1,216.5,88.1,231C35.1,245.6,-23.1,234.6,-66,207.6C-108.8,180.6,-136.3,137.5,-170.8,91.8C-205.3,46,-246.9,-2.4,-250.6,-55.1C-254.3,-107.7,-220,-164.6,-171.9,-191.9C-123.8,-219.3,-61.9,-217.1,-1,-216C60,-214.8,120,-214.7,158.1,-185.5Z" fill="#FFB4BC" />
  </g>
</svg>
  